<mxfile host="app.diagrams.net" modified="2021-09-05T17:14:19.796Z" agent="5.0 (Windows NT 10.0; Win64; x64) AppleWebKit/537.36 (KHTML, like Gecko) Chrome/92.0.4515.159 Safari/537.36" etag="m_iIMILt4rv2khXOgaWV" version="15.0.6" type="github">
  <diagram id="qZloEJihVwvUCKOZrqZt" name="Page-1">
    <mxGraphModel dx="1038" dy="579" grid="1" gridSize="10" guides="1" tooltips="1" connect="1" arrows="1" fold="1" page="1" pageScale="1" pageWidth="850" pageHeight="1100" math="0" shadow="0">
      <root>
        <mxCell id="0" />
        <mxCell id="1" parent="0" />
        <mxCell id="gSMpDIlkNUMm7VAuz39a-1" value="" style="rounded=1;whiteSpace=wrap;html=1;imageWidth=24;aspect=fixed;" vertex="1" parent="1">
          <mxGeometry x="150" y="160" width="200" height="100" as="geometry" />
        </mxCell>
      </root>
    </mxGraphModel>
  </diagram>
</mxfile>
